<?xml version="1.0" standalone="no"?>
<!DOCTYPE svg PUBLIC "-//W3C//DTD SVG 20010904//EN"
 "http://www.w3.org/TR/2001/REC-SVG-20010904/DTD/svg10.dtd">
<svg version="1.0" xmlns="http://www.w3.org/2000/svg"
 width="4500.000000pt" height="4500.000000pt" viewBox="0 0 4500.000000 4500.000000"
 preserveAspectRatio="xMidYMid meet">
<metadata>
Created by potrace 1.16, written by Peter Selinger 2001-2019
</metadata>
<g transform="translate(0.000000,4500.000000) scale(0.100000,-0.100000)"
fill="#000000" stroke="none">
<path d="M0 22500 l0 -22500 22500 0 22500 0 0 22500 0 22500 -22500 0 -22500
0 0 -22500z m23275 18345 c65 -28 119 -76 153 -134 22 -38 27 -58 27 -116 0
-86 -32 -158 -126 -280 -79 -102 -103 -155 -94 -203 10 -56 40 -106 89 -149
68 -60 122 -73 341 -83 105 -5 209 -12 232 -16 41 -6 42 -7 36 -38 -3 -17 -8
-34 -12 -38 -7 -7 -286 7 -425 22 -201 21 -340 152 -341 320 0 80 13 107 111
237 126 166 142 252 63 338 -51 55 -114 85 -180 85 -45 0 -55 -4 -85 -34 -19
-19 -34 -43 -34 -54 0 -32 29 -105 52 -129 20 -22 20 -49 -1 -82 -25 -38 -103
65 -123 161 -13 62 -8 90 24 138 58 86 175 108 293 55z m1345 -227 c0 -7 -7
-98 -15 -203 -8 -104 -15 -196 -15 -202 0 -10 28 -13 105 -13 l105 0 0 -40 0
-40 -106 0 -105 0 3 -130 c3 -140 3 -140 -52 -140 l-28 0 -7 135 -7 135 -102
0 c-138 0 -343 33 -368 58 -4 4 -2 23 5 41 10 28 16 32 37 27 14 -3 54 -13 90
-21 36 -8 128 -18 206 -21 l141 -7 11 154 c7 85 12 175 12 201 0 69 6 78 51
78 25 0 39 -5 39 -12z m853 -14 c95 -32 180 -136 212 -259 29 -112 16 -222
-40 -340 -32 -68 -55 -101 -200 -290 -155 -203 -176 -344 -58 -397 66 -30 213
-35 362 -14 62 10 115 15 118 12 3 -2 8 -20 13 -39 l7 -35 -103 -16 c-134 -21
-310 -21 -385 0 -140 39 -197 154 -153 305 22 76 63 144 167 277 164 210 201
287 200 422 -1 231 -149 357 -343 290 -30 -10 -55 -18 -56 -17 -8 11 -35 70
-32 71 5 5 92 35 113 39 47 10 135 6 178 -9z m-2363 -2287 l0 -44 -337 -36
c-507 -56 -1131 -117 -2098 -207 -1176 -109 -1786 -170 -2375 -237 -493 -56
-496 -56 -790 -56 -162 0 -378 5 -480 12 -229 14 -685 14 -845 1 -460 -39
-749 -154 -843 -334 -24 -46 -27 -63 -30 -186 -3 -91 5 -238 23 -450 18 -207
28 -404 30 -575 3 -247 5 -271 41 -475 43 -252 49 -357 20 -389 -24 -27 -56
-27 -89 -1 -36 29 -46 71 -57 250 -24 383 -55 509 -147 611 -64 71 -101 84
-233 83 -97 0 -128 -4 -194 -27 -44 -14 -83 -24 -87 -22 -4 3 -12 19 -18 36
-10 29 -9 31 26 46 92 38 193 55 302 51 97 -3 111 -6 167 -37 74 -39 113 -78
153 -151 l31 -55 0 162 c0 89 -12 300 -26 470 -18 214 -25 357 -22 468 3 153
4 163 32 220 145 298 690 433 1581 393 160 -7 457 -13 660 -13 362 1 376 1
680 38 567 67 1148 125 2570 257 1033 96 2176 212 2348 239 4 0 7 -18 7 -42z
m3505 7 c9 -9 26 -37 39 -63 42 -83 115 -168 226 -266 134 -118 218 -208 253
-273 l26 -49 -36 -17 c-19 -9 -36 -16 -38 -14 -1 2 -12 20 -24 40 -38 63 -100
131 -223 242 -64 58 -119 106 -122 106 -3 0 -3 -6 -1 -12 24 -68 170 -971 310
-1918 48 -322 88 -586 90 -588 1 -2 65 6 141 18 619 91 1279 -29 1953 -357
l175 -84 160 51 c89 28 222 71 296 95 396 129 482 156 485 153 1 -2 10 -88 19
-193 9 -104 18 -208 21 -230 2 -22 6 -71 10 -110 3 -38 8 -92 10 -120 3 -27
10 -106 15 -175 18 -205 16 -196 62 -238 301 -266 638 -607 896 -906 18 -21
35 -37 36 -35 2 2 51 99 109 215 434 868 953 1511 1533 1899 112 75 359 215
380 215 5 0 18 -16 27 -35 l16 -35 -119 -60 c-293 -150 -614 -402 -873 -685
-346 -379 -616 -785 -898 -1349 l-119 -239 43 -51 c63 -74 240 -294 331 -414
l78 -102 62 5 c33 4 377 28 764 55 387 26 705 50 706 52 41 48 445 631 901
1298 530 777 878 1269 895 1269 3 0 18 -10 34 -23 l29 -24 -110 -149 c-153
-206 -312 -434 -728 -1043 -405 -594 -591 -863 -778 -1128 -71 -101 -126 -186
-123 -189 3 -3 207 8 453 24 465 32 523 32 651 -2 29 -7 52 -10 50 -7 -7 16
-242 234 -292 272 l-55 42 22 33 c22 33 22 33 50 17 16 -9 100 -83 186 -163
185 -172 258 -228 337 -258 33 -13 68 -27 79 -31 11 -5 40 -11 65 -15 65 -8
73 -15 64 -59 -6 -33 -9 -37 -30 -32 -14 4 -55 -3 -92 -14 -37 -11 -130 -31
-208 -44 -225 -39 -301 -62 -381 -116 l-42 -29 -26 31 -27 32 24 18 c77 61
222 108 463 150 l80 14 -70 22 c-302 92 -344 94 -935 52 -245 -17 -445 -32
-446 -33 -15 -26 -259 -352 -344 -462 -301 -384 -518 -595 -603 -583 -16 2
-68 71 -207 279 -179 268 -395 576 -442 630 l-23 27 -335 -24 c-184 -13 -340
-26 -346 -28 -12 -5 -155 -427 -218 -641 -55 -188 -112 -406 -151 -575 -45
-198 -42 -187 -70 -194 -31 -8 -31 12 0 -327 13 -151 27 -310 30 -354 8 -92
12 -142 20 -205 2 -25 7 -79 10 -120 4 -41 8 -93 10 -115 2 -22 7 -76 10 -120
3 -44 8 -91 10 -105 2 -14 18 -187 36 -385 17 -198 32 -361 33 -362 0 0 51 3
111 7 61 5 176 9 256 9 l145 1 12 278 c12 271 72 1542 75 1592 1 14 6 25 10
24 5 0 96 -39 203 -85 l195 -84 -6 -85 c-4 -47 -11 -128 -16 -180 -11 -114
-20 -204 -34 -355 -27 -309 -96 -1040 -100 -1076 l-5 -46 92 -6 c145 -11 376
-36 576 -63 101 -14 185 -24 186 -22 2 1 209 676 460 1498 252 822 459 1496
461 1498 5 5 539 110 543 107 2 -1 26 -168 54 -371 l52 -369 -511 -1230 c-280
-676 -509 -1231 -508 -1233 3 -3 380 -79 436 -87 25 -4 50 -10 56 -13 6 -5
-72 -1031 -218 -2868 -125 -1574 -229 -2869 -231 -2878 -4 -20 -267 -140 -463
-211 -458 -166 -987 -243 -1595 -233 -198 3 -251 7 -266 18 -13 11 -16 11 -10
2 7 -11 -3 -12 -50 -6 -33 4 -74 7 -91 6 -18 0 -33 3 -33 8 0 5 -9 7 -20 5
-11 -2 -18 0 -15 5 6 9 24 8 42 -3 9 -5 11 -3 7 6 -3 9 -18 14 -39 13 -18 0
-31 -4 -28 -8 2 -5 1 -8 -4 -8 -4 0 -8 1207 -8 2682 l0 2683 -215 2 c-405 4
-797 34 -1094 83 -66 11 -121 19 -123 16 -2 -2 55 -493 126 -1092 72 -599 211
-1773 311 -2609 99 -836 182 -1535 185 -1552 4 -23 2 -33 -7 -33 -12 0 -526
205 -534 213 -5 5 -9 24 -549 2870 -257 1353 -465 2460 -463 2462 6 6 516 187
565 201 2 0 -161 450 -361 1000 -200 549 -363 1000 -361 1002 1 1 178 58 393
126 l391 123 51 -211 c27 -116 140 -582 249 -1036 110 -454 203 -824 208 -823
6 1 121 32 257 70 154 42 245 71 242 78 -2 6 -203 776 -446 1711 -243 934
-445 1703 -450 1707 -4 4 -92 -15 -196 -43 -239 -64 -708 -168 -974 -216 -113
-21 -206 -39 -208 -40 -3 -1 116 -850 622 -4439 46 -324 60 -452 52 -458 -6
-4 -24 -6 -41 -5 l-29 3 -163 1155 c-350 2491 -525 3725 -527 3728 -2 1 -99
-13 -217 -32 -261 -43 -533 -81 -999 -141 -1105 -142 -1261 -164 -1635 -226
-318 -53 -634 -117 -885 -179 -181 -45 -447 -118 -492 -135 -21 -8 -48 63 -28
75 20 12 314 94 520 145 527 129 1030 212 2225 365 657 84 1088 144 1336 185
81 14 149 25 153 25 3 0 6 11 6 24 0 47 -472 3345 -620 4326 -152 1016 -266
1676 -300 1738 -4 8 -15 -34 -24 -92 -27 -165 -63 -313 -90 -372 l-25 -55 -34
23 -34 22 24 58 c13 32 37 129 54 216 56 287 60 304 85 328 27 28 46 30 69 8z
m-821 -712 l70 -94 12 51 c6 29 14 54 17 57 3 3 21 2 41 -1 40 -8 40 5 5 -140
-51 -213 -141 -435 -340 -836 -118 -238 -142 -280 -157 -274 -9 4 -25 10 -34
12 -10 3 -18 10 -18 17 0 6 61 135 136 286 159 322 220 460 275 618 l39 115
-23 26 c-13 14 -43 53 -67 86 -24 33 -56 74 -72 91 l-29 31 22 27 c12 15 28
26 37 24 9 -2 48 -45 86 -96z m-9176 -225 c39 -42 55 -135 55 -317 -1 -264
-51 -539 -139 -775 -21 -55 -37 -116 -37 -136 1 -46 36 -183 71 -271 l27 -70
20 28 c81 113 170 173 269 181 72 6 128 -16 178 -70 67 -72 117 -215 125 -357
6 -114 -6 -167 -48 -209 -27 -27 -37 -31 -88 -31 -64 0 -150 26 -220 67 -54
31 -178 148 -217 204 -15 22 -33 39 -40 39 -8 0 -14 8 -14 19 0 10 -18 56 -39
102 -22 46 -49 118 -61 159 -12 41 -24 81 -26 89 -3 8 -25 -19 -53 -65 -165
-266 -395 -430 -690 -489 -92 -19 -101 -16 -101 37 0 24 5 28 38 34 67 11 154
35 221 60 200 75 398 266 523 504 l34 65 -9 105 c-16 166 17 653 58 876 38
206 99 289 163 221z m4675 -191 c31 -143 102 -248 205 -300 62 -31 169 -49
243 -41 l57 7 4 -40 c3 -38 1 -41 -26 -46 -45 -9 -127 -7 -191 5 -169 31 -296
149 -356 331 -25 76 -20 76 -109 9 -30 -23 -58 -41 -62 -41 -3 0 -16 13 -28
30 l-21 29 53 42 c64 51 142 89 184 89 30 0 31 -1 47 -74z m-7584 -62 c34 -43
46 -126 45 -309 0 -282 -57 -590 -152 -820 -28 -68 -28 -72 -16 -139 15 -79
69 -245 88 -271 12 -16 14 -15 34 17 27 44 108 120 151 142 49 26 120 36 173
25 133 -29 239 -235 240 -466 0 -150 -50 -211 -163 -199 -125 13 -268 97 -367
216 -29 36 -61 74 -71 85 -28 34 -109 217 -133 303 -13 45 -26 82 -30 82 -5 0
-8 -4 -8 -9 0 -5 -27 -50 -61 -100 -113 -170 -287 -318 -456 -390 -116 -49
-303 -90 -303 -66 0 7 -3 27 -6 44 -6 29 -5 31 22 31 59 0 202 42 291 85 191
93 341 245 467 475 l35 65 -9 120 c-7 79 -7 179 0 295 26 444 70 713 127 781
32 38 74 39 102 3z m3441 -155 c87 -39 130 -98 130 -176 0 -56 -22 -107 -80
-193 -47 -68 -79 -136 -80 -163 0 -10 13 -32 29 -48 26 -25 37 -29 86 -29 50
0 172 33 277 75 12 5 21 -2 33 -25 10 -20 13 -36 8 -41 -5 -5 -54 -26 -109
-46 -88 -33 -110 -37 -200 -37 -96 -1 -102 0 -138 28 -21 16 -44 44 -52 62
-30 71 -14 123 82 275 40 63 58 102 61 134 5 40 3 47 -26 74 -60 56 -130 63
-199 21 -46 -28 -69 -72 -71 -132 0 -28 -3 -53 -5 -56 -13 -12 -57 12 -71 38
-20 39 -12 86 26 143 68 103 194 144 299 96z m15313 -197 l27 -28 -91 -89
c-50 -50 -118 -121 -150 -158 l-60 -69 27 -46 c50 -84 164 -297 164 -304 0
-11 -61 -40 -68 -33 -4 4 -38 64 -77 134 -38 71 -77 139 -86 152 l-16 24 -42
-65 c-22 -36 -58 -99 -79 -140 -20 -41 -38 -77 -39 -78 -3 -7 -73 22 -73 30 0
19 82 170 135 248 l56 84 -26 46 c-14 25 -48 88 -75 141 l-49 97 37 14 37 14
59 -110 c32 -61 62 -115 66 -120 5 -5 23 9 41 30 48 57 242 254 249 254 3 0
18 -13 33 -28z m-11562 -146 c59 -22 64 -26 67 -56 5 -48 -8 -54 -68 -31 -30
11 -56 19 -58 16 -2 -2 1 -20 8 -39 16 -51 75 -96 221 -171 93 -49 140 -79
173 -114 72 -78 84 -167 31 -236 -33 -44 -134 -93 -207 -101 l-58 -7 0 41 0
40 48 7 c61 8 131 43 155 77 20 26 20 28 2 73 -21 56 -56 83 -198 156 -142 72
-199 116 -231 180 -33 67 -35 140 -6 169 26 26 44 25 121 -4z m1550 -18 c67
-31 128 -83 155 -134 14 -27 34 -43 81 -66 144 -68 242 -167 400 -404 l96
-144 -24 -19 c-13 -11 -30 -20 -36 -21 -7 0 -58 67 -113 149 -114 171 -199
267 -285 323 l-60 39 -7 -82 c-20 -238 -220 -403 -434 -359 -169 34 -316 186
-357 367 -13 53 -15 56 -26 36 -11 -22 -12 -22 -46 -6 -19 9 -35 19 -35 23 0
18 63 102 113 150 72 71 150 118 252 153 70 24 92 27 175 24 77 -2 106 -8 151
-29z m-2127 -33 c137 -36 228 -154 243 -319 19 -215 -111 -401 -296 -423 -142
-17 -332 89 -397 223 -23 47 -29 53 -50 48 -23 -6 -24 -4 -24 43 0 163 100
317 253 393 100 49 178 59 271 35z m10074 -49 c3 -3 1 -20 -4 -38 -9 -32 -11
-33 -67 -35 -147 -4 -239 -154 -178 -289 25 -54 79 -99 205 -167 145 -79 198
-123 232 -193 72 -148 6 -308 -150 -361 -74 -25 -228 -24 -281 3 -56 28 -74
58 -77 133 l-3 65 33 9 c18 6 35 8 37 5 3 -2 8 -32 11 -65 8 -76 21 -83 142
-83 154 0 232 57 232 169 0 106 -38 148 -226 251 -192 105 -254 183 -254 320
0 85 25 147 85 207 62 61 123 85 204 79 29 -3 56 -7 59 -10z m-11390 -23 c28
-17 62 -71 62 -98 -1 -47 -60 -105 -107 -105 -20 0 -23 5 -23 39 0 30 4 40 20
44 24 6 27 42 4 51 -57 22 -108 -15 -149 -106 -89 -197 -1 -469 180 -561 76
-38 196 -27 289 28 51 30 136 117 160 164 12 22 22 31 33 27 8 -3 26 -9 39
-12 l23 -6 -26 -51 c-33 -66 -134 -167 -199 -200 -181 -92 -341 -70 -468 63
-167 175 -199 459 -71 645 63 93 159 125 233 78z m12127 -5 c14 -66 48 -178
55 -178 4 0 15 10 26 21 43 49 144 64 211 32 79 -37 110 -118 143 -368 11 -82
23 -162 26 -176 5 -23 2 -28 -27 -38 -17 -6 -35 -11 -39 -11 -10 0 -28 91 -50
260 -20 160 -39 220 -78 250 -57 46 -144 6 -162 -74 -7 -32 -2 -61 26 -158 41
-144 52 -221 34 -243 -18 -22 -57 -18 -75 8 -28 39 -66 179 -71 261 -4 52 -18
119 -39 186 -34 106 -65 219 -65 238 0 10 23 17 62 21 11 1 19 -10 23 -31z
m-292 -165 c27 -84 37 -145 62 -350 9 -72 20 -147 25 -165 6 -18 10 -36 10
-39 0 -7 -55 -29 -70 -29 -13 0 -29 80 -54 281 -22 168 -42 264 -70 330 -5 10
3 20 26 31 18 9 36 17 40 17 4 1 18 -34 31 -76z m-12654 -308 c1 -18 -16 -24
-142 -55 -114 -28 -162 -35 -244 -35 -119 0 -131 6 -114 58 l12 34 51 -9 c63
-12 156 1 313 41 l110 28 7 -21 c3 -12 6 -30 7 -41z m-3379 -163 c0 -21 39
-143 50 -155 3 -4 32 4 64 19 62 28 70 26 80 -21 6 -29 3 -31 -54 -59 -47 -22
-59 -33 -54 -45 15 -37 44 -148 44 -167 0 -23 -17 -34 -53 -34 -19 0 -24 10
-41 80 -10 44 -22 83 -26 85 -4 2 -30 -5 -59 -15 -67 -26 -141 -27 -141 -2 0
43 12 62 39 62 31 0 118 28 126 40 3 4 -2 24 -10 43 -8 19 -23 66 -34 105
l-19 71 21 4 c51 10 67 7 67 -11z m10429 -214 c6 -17 8 -35 4 -39 -32 -30
-425 -142 -696 -198 -729 -150 -1484 -206 -3387 -251 -1347 -32 -2025 -64
-2710 -130 -393 -38 -598 -66 -2085 -284 -1290 -189 -2005 -278 -2735 -341
-323 -27 -734 -55 -816 -55 -52 0 -52 0 -59 36 -3 20 -5 37 -3 39 2 1 95 8
208 14 968 55 1760 148 3755 441 1069 157 1325 192 1655 224 745 74 1348 103
2905 141 1437 35 2032 68 2675 150 457 59 924 161 1180 258 87 33 96 33 109
-5z m-12933 -395 c-3 -8 -6 -26 -6 -39 0 -23 -2 -24 -83 -24 -46 0 -155 -9
-243 -20 -87 -10 -207 -22 -266 -26 l-108 -7 0 47 0 46 98 0 c54 0 152 7 217
16 136 18 314 31 363 25 24 -2 32 -7 28 -18z m8134 -675 c62 -29 113 -75 139
-126 l18 -34 19 31 20 31 79 -64 c44 -34 121 -100 170 -145 78 -71 215 -173
249 -184 7 -3 5 -16 -6 -41 l-18 -37 -32 17 c-67 34 -146 94 -268 203 -69 61
-143 124 -165 140 l-40 29 -2 -60 c-2 -81 -47 -172 -122 -247 -111 -110 -245
-146 -388 -103 -130 40 -255 143 -287 239 -20 59 -20 148 -1 203 22 62 32 71
60 58 20 -9 29 -7 54 15 17 14 54 37 83 51 91 44 153 56 273 53 94 -2 118 -6
165 -29z m-1448 -161 c135 -61 226 -221 272 -478 6 -36 6 -36 -31 -42 -20 -4
-39 -5 -40 -3 -2 2 -15 52 -28 110 -31 139 -81 242 -141 295 -108 95 -254 93
-363 -5 -66 -59 -119 -164 -128 -254 -6 -65 -33 -110 -66 -110 -24 0 -91 51
-130 98 -46 57 -120 198 -140 269 -17 57 -13 63 43 63 23 0 29 -5 34 -32 8
-46 57 -146 104 -216 62 -91 66 -92 81 -19 34 162 137 290 274 339 74 26 183
20 259 -15z m-1711 -17 c4 -19 7 -36 5 -37 -1 -1 -98 -16 -216 -33 -241 -34
-348 -59 -423 -96 -100 -50 -140 -106 -140 -195 0 -67 22 -109 72 -137 55 -31
102 -40 281 -57 199 -19 266 -36 319 -81 47 -40 65 -88 59 -154 -13 -134 -125
-216 -367 -270 -47 -10 -86 -18 -88 -17 -1 1 -3 20 -5 41 l-3 39 80 18 c161
35 264 90 291 154 18 44 18 69 -1 104 -25 50 -91 67 -357 91 -64 6 -147 20
-184 31 -128 40 -196 143 -180 272 19 144 125 234 336 287 93 23 450 79 490
77 19 -2 26 -9 31 -37z m574 -177 c3 -21 29 -96 57 -166 64 -164 78 -216 78
-299 0 -92 -3 -98 -49 -86 l-38 10 5 53 c6 70 -10 131 -74 295 -64 162 -75
216 -48 223 51 13 62 8 69 -30z m17912 -418 c1 0 -32 -50 -73 -110 -97 -141
-304 -469 -304 -481 0 -5 29 -43 65 -84 l66 -74 -28 -23 c-15 -12 -31 -22 -35
-23 -4 0 -30 27 -59 60 -29 33 -55 60 -58 60 -4 0 -31 -40 -61 -89 l-54 -89
-27 14 c-15 8 -31 19 -34 24 -4 6 21 55 55 110 l62 100 -61 81 c-34 44 -61 84
-61 88 0 10 45 41 57 41 5 0 31 -30 58 -66 46 -60 51 -64 63 -47 7 10 62 95
121 188 59 94 138 214 175 268 l68 97 31 -22 c18 -12 33 -22 34 -23z m-12426
-213 c103 -54 157 -170 214 -457 16 -77 31 -144 35 -148 4 -4 52 -15 106 -23
204 -30 291 -73 346 -170 62 -112 42 -226 -48 -266 -94 -41 -236 -5 -321 82
-51 52 -105 152 -129 238 -15 53 -21 63 -43 68 -185 38 -263 74 -348 160 -44
45 -74 88 -105 151 -38 79 -42 95 -43 164 0 67 3 81 30 124 63 101 196 135
306 77z m-1461 -469 c75 -76 110 -221 109 -448 l-1 -159 119 -57 c286 -135
377 -234 376 -409 0 -120 -47 -204 -137 -246 -137 -64 -288 2 -368 160 -50
100 -70 194 -74 359 l-4 149 -73 47 c-95 63 -170 145 -210 228 -29 61 -32 77
-32 159 0 83 2 94 30 140 43 69 112 114 177 114 45 0 54 -4 88 -37z m-8675
-246 c103 -49 195 -184 264 -392 83 -249 132 -495 301 -1505 181 -1084 278
-1598 420 -2241 65 -293 157 -679 163 -685 2 -2 37 7 78 21 189 65 601 123
1124 160 772 53 1882 59 2650 14 848 -49 1420 -146 1475 -249 8 -14 10 -736
10 -2441 -1 -2417 -2 -2421 -22 -2441 -87 -87 -541 -165 -1298 -223 -41 -3
-100 -7 -130 -10 -76 -7 -472 -25 -542 -25 l-58 0 19 -47 c10 -27 31 -75 46
-108 16 -33 79 -175 141 -315 62 -140 117 -256 122 -258 5 -1 277 105 603 238
l594 241 173 114 c154 103 171 117 162 135 -5 10 -10 20 -10 22 0 7 1010 -89
1017 -95 3 -4 -1 -7 -10 -7 -9 0 -18 -4 -21 -9 -7 -11 395 -239 709 -403 454
-238 1651 -847 1675 -853 14 -3 95 8 180 25 231 45 819 141 830 135 5 -3 12 0
15 5 4 6 19 10 33 9 15 -2 32 0 39 4 6 4 22 7 34 7 50 1 84 6 97 13 7 5 22 7
35 6 12 -1 30 1 40 6 9 4 24 4 33 1 9 -4 22 -2 28 3 32 27 145 11 861 -118
l730 -133 275 16 c151 9 306 16 343 16 l69 0 -7 41 c-7 40 -6 42 16 36 13 -3
59 -13 102 -22 51 -11 77 -22 77 -31 0 -11 17 -14 71 -14 43 0 130 -13 227
-35 387 -84 676 -145 696 -145 13 0 43 7 69 16 83 28 242 195 266 281 9 30 8
31 -32 41 -76 19 -3858 892 -4042 934 -99 22 -182 42 -184 44 -2 1 11 27 28
57 31 54 31 54 88 60 56 6 447 23 468 20 34 -4 3498 -806 3530 -818 28 -10
117 -15 305 -19 953 -20 1983 -136 2775 -311 557 -124 1004 -271 1366 -452
442 -220 706 -471 800 -758 21 -64 22 -87 21 -257 -1 -103 -7 -210 -12 -239
-6 -29 -8 -54 -6 -56 2 -2 1616 -17 3587 -33 1971 -16 3647 -31 3724 -32 127
-3 144 -6 183 -28 44 -25 72 -63 72 -97 0 -34 -39 -90 -361 -524 -178 -239
-405 -544 -505 -679 -100 -135 -231 -311 -291 -391 -144 -195 -854 -1151
-1118 -1505 -115 -155 -271 -365 -346 -466 -300 -404 -1137 -1529 -1208 -1624
-82 -110 -110 -133 -184 -158 -61 -20 -191 -21 -248 -1 -23 9 -94 55 -157 103
-63 48 -127 96 -142 107 -15 11 -39 29 -54 40 -69 50 -343 258 -361 273 -11 9
-32 25 -46 34 -14 9 -32 23 -40 30 -8 7 -24 20 -35 28 -12 8 -93 69 -179 135
-87 66 -177 133 -199 149 -23 16 -43 32 -46 35 -5 7 -186 144 -224 171 -11 8
-35 26 -52 40 -17 14 -41 32 -54 40 -12 8 -54 40 -94 71 -39 30 -116 88 -171
129 -55 41 -116 87 -135 102 -19 16 -39 32 -45 36 -110 81 -217 161 -241 181
-17 14 -41 33 -54 41 -12 8 -41 30 -64 48 -22 17 -45 36 -51 40 -5 4 -91 68
-190 142 -99 74 -189 142 -199 152 -11 10 -27 20 -37 23 -20 7 -1614 -1023
-1614 -1042 0 -23 482 -430 495 -417 4 5 96 167 205 359 108 193 201 354 206
359 13 14 16 -17 49 -459 16 -231 33 -441 36 -466 l5 -46 75 -23 c59 -19 72
-26 62 -36 -7 -6 -308 -214 -668 -461 l-655 -449 -1740 -267 -1740 -266 -1455
-45 c-800 -25 -1483 -48 -1516 -51 -204 -18 -374 -153 -451 -360 l-26 -71
-206 -33 c-113 -17 -222 -34 -241 -37 -19 -2 -64 -9 -100 -15 -36 -6 -81 -13
-100 -16 -55 -7 -1461 -223 -1496 -229 -30 -6 -35 -1 -154 156 -67 89 -123
168 -124 174 0 7 546 536 1214 1175 668 640 1254 1202 1302 1250 l87 86 -12
43 c-6 23 -14 42 -18 42 -4 0 -1471 -1385 -3260 -3077 l-3253 -3078 -245 -41
-246 -42 -1550 709 -1550 708 -5 46 c-3 25 -2 45 3 45 4 0 700 -313 1545 -696
l1537 -697 238 39 238 38 3118 2936 c1715 1614 3184 2997 3264 3073 81 76 141
140 134 142 -29 10 -649 155 -662 155 -8 0 -117 25 -242 56 l-226 55 -81 -17
c-58 -12 -106 -31 -169 -66 l-88 -50 -58 14 c-53 14 -64 13 -152 -7 -93 -21
-106 -28 -924 -499 -456 -263 -872 -503 -922 -532 l-93 -53 -135 272 c-217
440 -352 648 -559 864 l-105 110 707 393 c962 535 961 535 -45 12 -378 -196
-700 -363 -715 -369 -15 -7 -920 -477 -2010 -1044 -1091 -568 -2011 -1045
-2045 -1061 -35 -17 -90 -38 -124 -48 l-61 -19 8 117 c4 64 8 133 9 152 6 89
17 249 28 392 11 141 11 157 -3 154 -105 -31 -452 -31 -599 -1 -52 10 -77 12
-82 4 -3 -6 -70 -176 -149 -377 -78 -202 -146 -371 -151 -377 -6 -5 -9 -1 -10
10 0 11 -17 222 -37 468 l-37 448 -2615 2288 -2615 2287 -181 384 c-100 212
-457 968 -794 1680 -337 712 -629 1329 -648 1369 -32 70 -35 74 -49 55 -38
-52 -42 -56 -22 -19 90 160 182 266 278 323 103 60 -16 48 2927 287 1524 124
2776 225 2783 225 7 0 11 29 11 89 l0 89 -67 6 c-121 11 -216 28 -303 53 -354
102 -667 359 -882 722 -52 88 -115 219 -120 249 -2 9 -6 19 -10 22 -3 3 -8 14
-10 25 -2 16 2 19 20 18 12 -2 22 2 22 8 0 5 -4 8 -9 5 -5 -3 -20 3 -32 14
-13 11 -19 19 -12 20 6 0 14 8 16 18 3 9 5 4 6 -13 1 -23 3 -27 11 -15 5 8 10
11 10 7 0 -5 5 -5 12 -1 8 5 6 10 -8 15 -17 7 -17 8 -1 8 12 1 17 9 17 30 0
44 11 91 21 85 5 -2 11 5 13 18 3 13 7 34 10 48 3 14 12 55 20 92 9 37 13 75
10 85 -5 14 -4 15 4 4 8 -11 12 -6 18 25 4 21 8 53 8 71 1 17 4 29 8 27 3 -2
9 2 11 8 3 7 6 -29 6 -79 1 -73 4 -93 15 -93 14 0 31 28 27 45 -4 17 -3 59 4
100 3 22 8 53 10 69 6 40 26 60 23 23 -1 -15 -7 -27 -13 -27 -6 0 -7 -3 0 -8
12 -9 13 -13 31 -130 73 -489 313 -916 659 -1172 107 -80 139 -93 129 -54 -5
19 -2 24 12 25 17 1 17 2 2 6 -12 3 -18 14 -18 31 0 15 -5 34 -10 42 -8 13
-10 12 -10 -4 0 -11 -2 -17 -4 -15 -3 2 1 45 9 94 8 52 9 91 4 93 -12 5 -11
79 1 87 6 4 10 -11 10 -39 0 -24 4 -46 10 -48 5 -1 10 -44 11 -95 1 -51 5 -97
9 -103 12 -19 31 78 25 128 -13 116 -13 142 -2 135 7 -4 37 -22 67 -42 30 -19
88 -49 130 -67 l75 -33 3 1526 c1 840 0 1528 -2 1530 -10 11 -163 -47 -275
-103 -69 -35 -127 -62 -129 -59 -3 2 3 8 13 12 35 13 52 38 41 57 -9 13 -7 20
6 29 9 7 18 24 20 37 1 13 8 25 13 27 14 4 6 -90 -9 -99 -6 -4 -6 -8 -1 -8 22
0 32 17 38 64 9 66 29 134 34 119 6 -16 29 -17 39 -1 4 7 3 8 -4 4 -7 -4 -12
-3 -12 2 0 12 74 22 161 22 l69 0 0 323 c0 312 1 325 20 342 11 10 19 20 17
22 -6 5 -368 -94 -585 -162 -383 -118 -740 -249 -1537 -562 -1089 -428 -1473
-557 -2210 -743 -395 -100 -628 -166 -943 -266 -235 -75 -227 -71 -212 -90 11
-12 8 -20 -15 -44 l-29 -30 -31 30 -32 31 -294 -105 c-162 -57 -429 -154 -594
-215 -164 -61 -302 -111 -305 -111 -6 0 -32 72 -27 75 1 1 22 9 47 18 37 14
55 31 101 95 31 42 149 204 262 359 114 155 207 285 207 288 0 3 -13 5 -30 5
-28 0 -30 2 -30 40 l0 40 64 0 63 0 53 74 c32 45 54 87 57 108 5 50 11 60 35
56 19 -3 36 14 94 92 133 180 882 1217 1494 2070 1407 1961 1751 2430 2135
2910 360 449 629 724 822 836 113 67 230 82 318 41z m9554 -99 c21 -46 51
-119 66 -163 16 -44 31 -84 35 -88 11 -12 185 -45 283 -52 l87 -7 0 -40 0 -41
-95 7 c-53 3 -130 13 -172 21 -42 8 -77 14 -79 12 -1 -1 4 -36 11 -77 7 -41
15 -108 19 -147 l6 -73 -43 0 -44 0 -6 93 c-3 50 -13 125 -22 165 -15 63 -21
75 -43 83 -77 27 -202 84 -202 92 0 9 29 67 34 67 2 0 37 -15 77 -34 52 -25
75 -31 77 -22 2 7 -20 66 -47 131 -28 66 -49 120 -48 121 4 3 62 33 65 34 2 0
20 -37 41 -82z m-4777 -1214 c24 -29 48 -53 55 -54 26 -1 195 109 291 189 l60
50 26 -28 27 -28 -57 -52 c-46 -42 -181 -137 -279 -196 -16 -10 -13 -18 27
-80 25 -39 57 -94 72 -122 l26 -52 -29 -16 c-41 -21 -45 -20 -65 21 -27 57
-117 194 -127 194 -5 0 -66 -32 -136 -71 -132 -73 -127 -73 -155 -25 -13 24
-9 27 135 108 l107 60 -39 46 c-21 26 -86 97 -144 158 l-106 111 27 26 27 27
107 -107 c59 -58 126 -130 150 -159z m18567 111 c5 -16 12 -42 15 -56 l6 -26
102 22 c57 12 122 25 144 28 l41 7 6 -37 c4 -20 5 -39 3 -40 -2 -2 -70 -17
-152 -34 -81 -16 -149 -31 -150 -32 0 -1 -7 -24 -13 -52 -12 -48 -62 -175 -80
-203 -6 -11 -15 -10 -43 4 l-35 16 33 77 c42 98 50 131 33 131 -8 0 -59 -9
-114 -19 -109 -22 -117 -19 -113 33 3 29 6 31 73 43 179 33 175 31 175 67 0
17 -9 49 -19 69 l-19 37 31 25 31 24 18 -27 c10 -15 22 -40 27 -57z m-851
-182 c10 -33 9 -39 -10 -57 -20 -18 -20 -20 -3 -33 10 -7 35 -15 54 -19 111
-18 157 -35 188 -68 34 -37 53 -89 53 -147 0 -59 -54 -153 -120 -208 -50 -42
-226 -151 -243 -151 -10 0 -38 60 -33 69 3 5 45 30 93 57 165 93 238 190 213
284 -13 47 -28 57 -123 75 -92 18 -116 27 -155 60 -35 30 -39 52 -17 94 14 28
69 81 84 81 4 0 13 -17 19 -37z m-603 -183 c126 -48 195 -220 150 -376 -33
-113 -141 -189 -234 -164 -45 12 -103 70 -122 124 -8 21 -20 36 -29 36 -22 0
-43 91 -43 186 1 75 21 131 62 168 43 39 148 51 216 26z m-815 -447 c-1 -49
-10 -58 -71 -70 -35 -7 -74 -22 -94 -37 -94 -72 -100 -235 -12 -300 47 -35
145 -29 229 12 78 38 152 114 170 173 8 28 16 38 26 34 7 -3 25 -5 38 -5 31 0
31 -20 0 -86 -88 -189 -351 -292 -504 -197 -97 60 -133 202 -83 319 44 101
151 173 259 174 33 0 42 -4 42 -17z m-24230 -470 c0 -27 5 -86 12 -132 l11
-83 46 6 c25 3 92 9 149 13 l102 6 0 -42 0 -41 -57 -1 c-32 0 -94 -6 -138 -12
-77 -11 -80 -13 -78 -37 2 -14 6 -88 9 -165 l7 -141 -42 4 -41 4 0 82 c0 82
-14 203 -24 214 -4 3 -57 -4 -119 -15 -122 -23 -129 -21 -125 31 3 29 4 30
110 50 59 12 110 24 114 28 4 4 2 40 -4 80 -6 40 -14 101 -18 136 l-6 62 46 0
46 0 0 -47z m4922 -299 c3 -2 0 -25 -8 -51 -28 -92 -83 -319 -108 -443 -43
-218 -59 -373 -60 -578 l-1 -193 -40 3 -40 3 1 200 c0 186 17 375 44 501 l9
40 -129 132 c-71 73 -132 132 -137 132 -28 1 -33 17 -18 54 l16 37 41 -23 c22
-13 85 -70 139 -127 54 -58 100 -103 102 -100 2 2 26 90 52 194 62 250 58 238
98 230 17 -4 35 -9 39 -11z m6214 -329 c27 -8 69 -31 92 -51 92 -79 126 -187
120 -384 -3 -111 -7 -132 -31 -185 -55 -119 -135 -176 -259 -183 -133 -8 -248
48 -313 152 l-30 50 0 175 c0 198 13 261 70 335 71 93 217 131 351 91z m1115
-129 l29 -25 -111 -123 c-61 -68 -278 -316 -483 -553 -560 -648 -871 -991
-1120 -1235 l-66 -64 -30 29 -30 29 193 196 c284 287 429 448 957 1060 339
394 619 710 627 710 3 0 18 -11 34 -24z m3480 -57 c165 -13 325 -40 444 -74
95 -28 247 -95 309 -137 l36 -25 -22 -29 c-12 -16 -23 -31 -24 -33 -2 -2 -25
10 -51 27 -233 149 -625 216 -1137 192 -323 -15 -474 -41 -613 -105 -111 -51
-193 -136 -230 -239 -38 -105 -44 -177 -53 -601 -10 -501 -31 -702 -91 -905
-51 -172 -138 -222 -189 -107 -32 72 -41 198 -44 617 -4 422 -8 469 -49 550
-46 91 -124 99 -463 44 l-42 -6 -4 40 c-3 35 0 42 17 46 66 16 298 37 369 35
71 -4 88 -8 123 -32 46 -32 85 -97 109 -183 14 -49 18 -135 24 -524 7 -410 14
-527 33 -546 9 -10 46 105 66 203 39 194 53 367 61 798 9 427 15 494 55 605
26 73 61 124 125 183 69 64 147 105 272 141 215 62 645 91 969 65z m-105 -761
c63 -32 100 -80 120 -158 14 -55 15 -75 5 -129 -22 -120 -67 -186 -262 -388
-176 -182 -215 -245 -207 -338 4 -44 11 -62 33 -85 53 -55 123 -52 374 19 77
22 167 43 200 47 l61 7 0 -41 0 -40 -51 -7 c-28 -4 -123 -27 -212 -52 -178
-49 -292 -63 -351 -43 -86 28 -135 103 -136 206 0 121 41 190 238 395 199 208
232 263 232 384 0 111 -62 169 -179 169 -158 -1 -301 -99 -285 -196 7 -45 -8
-50 -50 -17 -34 27 -35 77 -1 134 38 66 128 125 230 152 73 18 183 10 241 -19z
m-3569 -407 c185 -85 155 -447 -47 -569 -67 -40 -109 -52 -180 -52 -94 1 -171
51 -207 137 -21 51 -33 171 -25 248 l7 70 30 -3 c27 -2 32 2 48 41 38 94 132
146 262 146 48 1 83 -6 112 -18z m13518 -7026 c192 -233 215 -268 215 -334 0
-70 -140 -755 -161 -790 -35 -58 -45 -60 -441 -72 -461 -14 -526 -11 -596 25
-64 33 -65 33 -229 225 l-133 154 0 51 c0 28 9 228 20 445 10 217 17 398 14
403 -3 4 5 8 18 9 13 0 259 20 548 43 289 24 536 44 550 45 22 1 53 -32 195
-204z m-24015 -3886 c916 -800 1989 -1738 2385 -2084 689 -602 1094 -957 1096
-959 0 -1 3 -151 6 -335 4 -208 2 -332 -4 -328 -110 68 -4789 3236 -4837 3275
-178 146 -286 310 -421 640 l-58 144 62 556 c35 306 64 563 64 570 0 8 7 6 21
-6 12 -10 770 -673 1686 -1473z m10003 -3276 c-2 -87 -6 -253 -9 -370 l-6
-211 -196 -151 c-107 -83 -197 -149 -199 -147 -9 9 80 851 91 858 71 44 303
177 311 177 6 1 9 -56 8 -156z m-997 -455 c-3 -24 -26 -248 -51 -498 -33 -325
-51 -459 -61 -469 -35 -36 -1919 -1487 -1922 -1480 -2 4 118 373 266 819 l270
812 744 428 c408 236 747 429 752 429 4 1 6 -18 2 -41z m976 -590 c-2 -150 -7
-301 -10 -335 l-7 -62 -205 93 -205 93 4 64 c2 35 6 72 10 82 6 16 396 335
411 337 3 0 4 -123 2 -272z m6964 28 c28 -13 63 -39 78 -58 21 -29 92 -286
410 -1494 378 -1435 515 -1942 596 -2199 75 -240 84 -331 40 -402 -22 -36 -76
-74 -134 -93 -43 -14 -367 -14 -636 0 -85 5 -1229 53 -2541 107 -2360 98
-2386 100 -2432 122 -60 29 -104 82 -123 148 -14 47 -14 59 0 110 8 32 292
843 630 1803 404 1142 626 1759 644 1785 34 49 120 102 176 110 43 5 2860 82
3101 84 128 1 144 -1 191 -23z m-7129 -485 c72 -33 137 -61 142 -61 7 0 11
-34 11 -92 l0 -93 -253 -237 c-144 -136 -253 -231 -255 -223 -3 12 58 662 74
787 l6 47 71 -33 c40 -18 131 -61 204 -95z m-961 -423 c-15 -150 -30 -280 -34
-290 -6 -14 -26 -8 -151 49 l-144 64 -51 -50 c-27 -28 -48 -52 -46 -54 3 -2
86 -42 185 -87 99 -46 183 -86 186 -89 4 -3 -5 -119 -20 -257 l-26 -252 -635
-597 c-349 -329 -740 -697 -867 -817 l-233 -220 -213 -35 -213 -36 -79 36
c-62 27 -79 39 -77 53 2 10 96 295 208 635 l204 618 1013 804 c556 442 1014
802 1016 801 2 -2 -9 -126 -23 -276z m-2341 203 c-38 -24 -3201 -1843 -3235
-1861 -14 -7 -21 -9 -17 -4 12 13 3261 1882 3272 1883 6 0 -3 -8 -20 -18z"/>
<path d="M27452 35469 c-57 -4 -152 -15 -213 -25 -99 -15 -109 -18 -109 -38 0
-11 27 -207 60 -434 33 -227 60 -414 60 -416 0 -2 8 -2 18 1 42 11 539 -70
751 -122 156 -38 298 -83 399 -124 l69 -29 -7 32 c-4 17 -18 69 -30 116 -12
47 -23 92 -25 100 -2 8 -15 58 -29 110 -14 52 -26 102 -26 111 0 11 21 22 68
36 37 11 126 39 197 63 221 71 469 151 480 154 61 15 137 41 141 48 6 9 -139
80 -326 158 -484 204 -1007 295 -1478 259z"/>
<path d="M27263 34458 c3 -13 78 -540 168 -1173 89 -632 166 -1154 170 -1159
13 -15 540 89 919 180 176 42 442 113 448 119 2 1 -22 99 -53 216 -30 118 -71
277 -91 354 -45 176 -62 242 -74 280 -5 17 -11 41 -14 55 -3 14 -17 70 -32
125 -14 55 -30 116 -34 135 -5 19 -15 60 -24 90 -49 186 -91 346 -109 417
l-21 83 -90 39 c-226 99 -505 168 -936 231 -113 17 -211 30 -219 30 -9 0 -11
-8 -8 -22z"/>
<path d="M30434 34190 c3 -30 8 -84 11 -120 3 -36 7 -85 10 -110 2 -25 7 -76
10 -115 3 -38 8 -81 10 -95 4 -24 19 -185 31 -330 2 -36 7 -78 9 -95 3 -16 7
-70 11 -120 7 -103 9 -119 23 -270 6 -60 13 -146 17 -190 3 -44 9 -83 13 -87
9 -11 519 26 530 38 4 5 28 63 54 130 25 66 74 186 107 265 97 228 101 187
-26 330 -247 280 -506 544 -734 749 l-82 74 6 -54z"/>
<path d="M31365 33108 c-65 -152 -167 -410 -163 -413 2 -1 137 8 302 19 l298
21 -72 95 c-81 106 -310 390 -314 390 -2 0 -25 -51 -51 -112z"/>
<path d="M32620 32710 c-360 -26 -656 -48 -658 -49 -1 -1 28 -43 66 -93 114
-156 224 -316 372 -539 78 -118 145 -215 149 -217 25 -9 222 184 371 363 100
120 440 567 440 578 0 10 -23 9 -740 -43z"/>
<path d="M30815 32584 c-88 -6 -177 -13 -197 -13 l-37 -1 4 -42 c2 -24 6 -74
10 -113 3 -38 10 -113 15 -165 17 -173 30 -314 35 -390 10 -136 16 -195 20
-210 2 -8 7 -60 11 -115 3 -55 8 -113 9 -130 2 -16 4 -42 4 -57 2 -61 18 -19
60 155 61 258 158 593 249 865 l78 232 -50 -1 c-28 -1 -123 -8 -211 -15z"/>
<path d="M31086 29009 c-98 -4 -179 -9 -181 -11 -1 -2 5 -93 15 -203 10 -110
21 -234 24 -275 4 -41 8 -102 11 -135 3 -33 7 -72 10 -86 6 -26 4 -27 -47 -33
-29 -3 -138 -8 -243 -11 -104 -3 -206 -7 -225 -10 -19 -2 -114 -7 -211 -10
l-177 -6 -26 108 c-42 169 -121 461 -127 467 -2 3 -29 -1 -59 -9 -30 -8 -66
-16 -80 -19 -14 -3 -59 -14 -100 -25 -41 -11 -113 -30 -160 -41 -47 -11 -91
-24 -97 -28 -10 -6 -6 -36 17 -131 17 -67 30 -129 30 -136 0 -8 -35 -38 -77
-66 l-77 -53 -200 32 c-110 18 -203 35 -207 39 -3 5 -17 38 -29 76 -13 37 -29
67 -35 67 -10 0 -289 -91 -325 -106 -19 -8 308 -92 560 -144 350 -71 630 -104
1033 -120 288 -12 759 1 922 26 313 47 1073 220 1540 352 l239 67 -64 7 c-36
3 -282 10 -547 14 -343 5 -480 10 -476 18 4 6 0 5 -9 -2 -11 -9 -17 -40 -22
-112 -7 -97 -8 -99 -34 -104 -107 -21 -274 -48 -278 -44 -2 3 3 148 11 323 12
257 13 320 3 327 -14 9 -45 8 -302 -3z"/>
<path d="M31729 28978 c0 -13 -6 -80 -12 -150 -10 -101 -10 -125 0 -117 7 6
18 7 24 3 7 -4 9 -3 6 3 -4 6 73 63 173 129 99 65 178 119 176 121 -4 5 -290
33 -333 33 -27 0 -33 -4 -34 -22z"/>
<path d="M30716 28014 c5 -19 4 -25 -5 -20 -6 4 -11 13 -11 20 0 19 -57 18
-64 -1 -5 -13 -4 -14 9 -3 11 9 15 9 15 1 0 -6 -7 -14 -15 -17 -8 -4 -15 -14
-15 -23 0 -14 2 -14 10 -1 8 12 11 13 19 1 6 -9 11 -10 15 -2 4 6 2 11 -5 11
-7 0 -10 2 -7 5 3 3 17 1 32 -4 l26 -11 0 -2644 c0 -1928 -3 -2645 -11 -2648
-7 -2 -4 -10 7 -18 11 -9 15 -10 10 -2 -4 6 -4 12 1 12 4 0 7 1208 5 2685 -1
1809 -5 2685 -12 2685 -6 0 -8 -11 -4 -26z"/>
<path d="M16562 37265 c-41 -145 -72 -419 -87 -765 -7 -154 1 -156 40 -8 48
180 67 321 72 528 2 107 0 215 -5 240 l-9 45 -11 -40z"/>
<path d="M16839 35936 c-73 -26 -138 -93 -173 -178 l-16 -37 48 -63 c90 -117
222 -204 326 -215 74 -8 81 4 80 131 -1 80 -7 118 -27 182 -54 163 -128 220
-238 180z"/>
<path d="M13648 37034 c-32 -53 -89 -567 -87 -798 l0 -111 19 60 c26 79 65
266 81 385 22 170 13 507 -13 464z"/>
<path d="M13884 35670 c-68 -39 -144 -137 -144 -186 0 -9 16 -38 36 -65 85
-116 239 -217 338 -222 44 -2 51 1 63 23 28 55 8 241 -38 348 -56 129 -146
165 -255 102z"/>
<path d="M22180 36556 c-71 -21 -117 -42 -182 -88 l-60 -42 4 -81 c5 -103 45
-193 116 -264 78 -78 120 -96 227 -96 103 0 140 13 200 73 62 61 89 132 90
232 0 102 -19 145 -91 209 -75 66 -192 88 -304 57z"/>
<path d="M20194 36509 c-114 -15 -224 -96 -275 -204 -32 -67 -35 -85 -15 -85
8 0 15 -15 19 -39 12 -91 82 -175 185 -224 199 -93 373 28 375 263 2 199 -111
312 -289 289z"/>
<path d="M20133 34525 c-56 -15 -120 -45 -164 -76 -24 -17 -28 -17 -39 -4 -19
23 -26 19 -44 -25 -49 -123 21 -247 182 -323 57 -27 79 -32 142 -32 64 0 83 4
128 30 30 16 73 51 97 77 168 187 79 370 -179 367 -39 0 -95 -7 -123 -14z"/>
<path d="M23176 33550 c-62 -19 -96 -73 -96 -153 0 -111 113 -277 227 -336 35
-17 173 -61 194 -61 12 0 -61 330 -86 392 -54 134 -137 188 -239 158z"/>
<path d="M23614 32883 c4 -15 24 -65 46 -110 62 -127 129 -173 252 -173 75 0
92 19 86 95 -10 121 -100 176 -342 210 l-49 7 7 -29z"/>
<path d="M21744 33081 c-129 -79 -120 -262 21 -406 53 -55 133 -111 143 -100
4 3 8 50 10 103 7 162 -33 339 -90 399 -26 28 -44 29 -84 4z"/>
<path d="M21980 32327 c0 -242 85 -423 214 -456 118 -29 215 53 216 185 0 133
-72 215 -283 319 -72 36 -134 65 -139 65 -4 0 -8 -51 -8 -113z"/>
<path d="M13002 32810 c-160 -57 -395 -274 -716 -660 -387 -464 -798 -1019
-2036 -2745 -587 -819 -1150 -1600 -1518 -2108 -155 -214 -282 -390 -282 -392
0 -2 26 -18 58 -35 71 -38 162 -106 278 -207 49 -44 117 -102 151 -130 l62
-51 -21 -29 c-12 -15 -23 -30 -25 -32 -4 -6 -68 45 -200 161 -67 58 -146 124
-175 146 -60 44 -159 102 -175 102 -6 0 -36 -35 -67 -77 l-55 -77 67 -32 c86
-41 149 -89 295 -226 116 -109 119 -111 150 -101 18 6 127 41 242 78 301 96
615 185 942 265 341 84 592 156 883 252 371 122 611 212 1605 601 204 80 471
182 595 227 245 90 723 250 746 250 8 0 14 2 14 4 0 10 -112 251 -136 294 -48
83 -87 146 -127 200 -37 49 -39 54 -23 70 9 10 16 32 16 49 0 30 2 31 53 38
28 4 97 23 152 42 221 77 308 104 320 99 7 -2 14 -20 17 -40 4 -35 3 -35 -44
-47 -27 -6 -106 -32 -176 -58 -70 -27 -152 -53 -182 -60 -30 -7 -61 -14 -68
-16 -8 -3 10 -37 48 -96 60 -91 150 -262 203 -388 21 -48 31 -62 43 -57 9 3
86 25 172 48 87 23 158 42 160 44 2 1 -20 101 -48 221 -183 774 -305 1403
-506 2608 -199 1194 -253 1443 -364 1670 -58 119 -95 166 -153 194 -53 26
-106 26 -175 1z m-2555 -4322 c61 -57 71 -137 24 -190 -25 -28 -36 -33 -75
-33 -29 0 -51 6 -62 17 -15 15 -20 15 -45 3 -26 -14 -28 -14 -38 17 -30 85 7
183 79 211 29 12 92 -1 117 -25z m-417 -298 c0 -31 -4 -40 -17 -40 -25 0 -123
-47 -123 -59 0 -17 51 -71 83 -87 25 -13 51 -15 157 -9 150 8 183 -2 229 -69
38 -56 54 -107 53 -180 0 -100 -44 -176 -125 -215 -78 -38 -162 -25 -215 32
l-23 24 36 22 c36 21 36 21 57 1 43 -40 128 -14 168 52 40 65 16 201 -41 242
-20 14 -42 15 -144 10 -137 -7 -183 1 -236 45 -35 29 -99 135 -99 164 0 19
172 107 211 107 27 0 29 -2 29 -40z m-528 -192 c1 -2 4 -98 7 -214 8 -278 11
-283 156 -211 33 16 62 31 64 33 1 1 -8 28 -23 59 l-25 56 34 16 c19 9 36 15
38 12 14 -15 237 -462 237 -473 0 -8 -8 -16 -17 -19 -10 -2 -26 -8 -35 -12
-14 -6 -30 19 -89 137 -39 78 -73 145 -75 147 -3 3 -41 -13 -85 -35 -108 -52
-167 -54 -209 -7 -45 50 -53 98 -54 310 -1 185 0 192 19 196 26 6 55 8 57 5z"/>
<path d="M18624 28075 c0 -14 5 -24 11 -21 5 2 9 9 7 15 -1 7 2 9 8 6 8 -5 7
-12 -3 -23 -15 -18 -28 -104 -15 -96 5 3 8 0 8 -6 0 -8 -21 -10 -72 -6 -318
27 -1393 49 -1938 41 -725 -10 -1324 -36 -1670 -70 -80 -8 -154 -15 -165 -15
-16 -1 -17 -2 -5 -9 29 -17 451 -49 965 -73 363 -17 2052 -17 2410 0 566 27
852 50 1054 83 264 44 286 85 68 129 -107 22 -341 49 -476 55 -51 2 -96 7 -99
10 -3 3 -12 5 -21 5 -13 -1 -12 -3 3 -15 11 -8 14 -15 8 -15 -7 0 -12 -5 -12
-11 0 -5 5 -7 12 -3 7 4 8 3 4 -5 -9 -15 -29 -3 -22 14 6 17 -13 35 -39 35
-16 0 -21 -6 -21 -25z"/>
<path d="M7989 26277 c-130 -177 -235 -324 -233 -326 2 -2 171 57 376 132 205
74 410 148 456 164 l83 29 -94 91 c-51 50 -122 112 -158 138 -61 46 -156 95
-182 95 -7 0 -118 -145 -248 -323z"/>
<path d="M13825 22635 c-1776 -271 -3256 -496 -3287 -500 -53 -5 -66 -8 -128
-20 -14 -2 -45 -7 -70 -10 -95 -12 -655 -97 -658 -100 -2 -1 110 -512 248
-1135 137 -622 250 -1133 250 -1134 0 -2 168 44 373 101 204 58 397 111 427
119 30 8 80 22 110 31 30 9 60 18 65 19 6 2 42 12 80 23 39 10 1485 413 3215
895 1730 482 3168 883 3196 891 l52 15 -296 650 c-282 621 -296 650 -321 649
-14 -1 -1479 -223 -3256 -494z"/>
<path d="M9815 22939 c-396 -5 -738 -9 -761 -11 l-40 -3 167 -265 c92 -146
175 -266 183 -268 13 -3 1473 306 1484 313 3 2 42 223 42 238 0 8 -4 8 -1075
-4z"/>
<path d="M20567 20804 c-15 -14 -27 -31 -27 -38 0 -17 19 -119 23 -123 3 -2
208 -42 1415 -274 237 -46 432 -86 432 -89 0 -3 -136 -17 -301 -30 -183 -15
-292 -27 -278 -32 22 -6 248 -50 744 -142 l191 -36 319 27 320 26 1915 -369
1915 -369 74 -66 74 -67 191 -6 c261 -8 1446 -16 1421 -9 -11 2 -218 43 -460
90 -242 46 -2118 408 -4170 804 -2051 395 -3739 721 -3750 723 -13 4 -31 -4
-48 -20z"/>
<path d="M17800 20619 c-261 -60 -481 -110 -489 -111 -8 -2 103 -112 246 -245
l260 -241 498 144 c274 79 500 146 503 149 3 3 3 6 1 8 -275 214 -529 407
-536 406 -4 -1 -222 -50 -483 -110z"/>
<path d="M16240 20266 c-393 -89 -720 -164 -727 -167 -18 -6 587 -564 609
-562 33 5 1283 366 1292 374 5 4 -96 123 -224 263 -128 141 -234 256 -234 255
-1 0 -323 -74 -716 -163z"/>
<path d="M18538 19931 c-257 -75 -467 -139 -465 -143 3 -11 550 -519 565 -525
14 -6 894 377 890 387 -2 4 -111 100 -242 213 -158 137 -246 207 -260 206 -12
-1 -231 -63 -488 -138z"/>
<path d="M14422 19855 c-370 -84 -674 -154 -677 -156 -5 -5 634 -622 662 -639
17 -11 113 14 676 176 361 104 657 191 657 194 0 6 -600 545 -629 566 -12 8
-173 -25 -689 -141z"/>
<path d="M29312 19685 c-13 -28 -15 -65 -6 -89 8 -21 125 -118 338 -282 l170
-132 101 -4 c55 -3 102 -3 104 -1 5 4 4 4 -125 103 -55 41 -101 77 -104 80 -3
3 -21 16 -40 30 -41 28 -39 27 -110 83 -30 23 -100 76 -155 116 -55 41 -114
85 -131 98 l-31 23 -11 -25z"/>
<path d="M17010 19486 c-344 -100 -631 -184 -638 -187 -10 -3 723 -698 746
-706 11 -4 1073 463 1074 472 1 10 -541 605 -550 604 -4 0 -288 -82 -632 -183z"/>
<path d="M35754 19197 c-364 -199 -692 -378 -729 -398 l-67 -36 111 -61 110
-61 63 28 c35 16 155 74 268 128 113 55 428 207 700 338 272 131 498 241 502
244 8 7 -267 181 -285 181 -7 0 -310 -164 -673 -363z"/>
<path d="M12172 19347 c-464 -106 -843 -196 -843 -200 0 -12 852 -742 865
-741 24 3 1631 467 1639 474 4 4 -166 153 -379 331 -272 228 -394 325 -413
326 -14 1 -405 -85 -869 -190z"/>
<path d="M19465 19090 c-209 -93 -393 -175 -409 -183 l-28 -13 322 -299 c177
-165 325 -301 328 -302 10 -4 765 461 768 472 3 9 -572 486 -592 491 -5 2
-180 -73 -389 -166z"/>
<path d="M15335 18999 c-357 -104 -654 -190 -659 -192 -9 -3 889 -875 909
-883 12 -5 1236 530 1236 540 -1 14 -806 726 -821 725 -8 0 -307 -85 -665
-190z"/>
<path d="M25646 18894 c-158 -11 -218 -19 -250 -32 -72 -33 -247 -174 -233
-188 4 -4 662 -114 680 -114 13 0 36 51 118 273 l29 77 -68 -1 c-37 -1 -161
-8 -276 -15z"/>
<path d="M36745 18845 c-22 -7 -314 -101 -648 -208 -335 -107 -611 -197 -613
-200 -3 -3 7 -24 21 -47 37 -58 62 -134 76 -231 14 -99 8 -176 -21 -251 -38
-101 -89 -145 -419 -358 -165 -107 -301 -198 -301 -202 0 -3 284 -227 631
-497 l631 -491 48 0 c27 0 60 5 74 11 16 8 295 390 775 1063 855 1199 821
1151 821 1170 0 35 -40 46 -171 46 -69 0 -268 3 -441 7 l-316 6 -6 37 c-6 36
-80 161 -94 159 -4 -1 -25 -7 -47 -14z"/>
<path d="M26395 18810 c-147 -26 -263 -89 -323 -176 -31 -44 -34 -54 -28 -99
14 -120 69 -205 173 -267 303 -180 823 -246 2213 -279 579 -14 1941 -7 3230
16 487 9 948 15 1025 13 l140 -3 60 -41 c95 -65 96 -68 33 -100 -29 -15 -55
-30 -58 -35 -3 -4 -24 -2 -46 6 -33 11 -282 14 -1463 14 -1401 1 -1423 1
-1410 -18 8 -11 59 -72 114 -136 193 -226 354 -446 535 -730 142 -222 382
-553 409 -563 6 -2 1156 719 1566 982 44 29 122 79 174 111 52 33 108 72 125
86 17 14 36 28 42 30 30 11 822 515 816 519 -4 3 -36 19 -72 35 -218 98 -287
255 -169 389 l39 44 -153 6 c-83 4 -611 20 -1172 36 -1080 32 -5319 156 -5590
164 -88 2 -182 1 -210 -4z"/>
<path d="M18093 18507 c-315 -154 -573 -284 -573 -287 0 -3 87 -87 192 -186
106 -98 289 -268 406 -377 l212 -199 487 314 c267 172 491 316 496 319 12 8
-611 693 -632 696 -9 1 -274 -125 -588 -280z"/>
<path d="M13298 18406 c-456 -132 -828 -243 -827 -246 0 -4 1222 -1023 1253
-1044 15 -10 1469 621 1464 635 -2 6 -690 586 -1014 855 l-49 41 -827 -241z"/>
<path d="M20340 18344 c-168 -135 -334 -268 -370 -295 -36 -27 -82 -63 -104
-81 -21 -18 -41 -33 -43 -33 -3 0 -26 -19 -51 -42 -25 -23 -49 -40 -53 -38 -4
3 -10 -2 -13 -11 -3 -8 -11 -12 -16 -9 -6 4 -9 2 -8 -3 4 -13 -292 -253 -303
-246 -4 2 -11 -1 -15 -7 -5 -8 -2 -10 7 -5 8 4 5 1 -5 -6 -10 -7 -26 -21 -35
-30 -17 -20 -36 -24 -25 -6 4 7 3 8 -5 4 -6 -4 -9 -11 -6 -16 3 -5 -7 -18 -22
-29 -16 -11 -35 -27 -43 -35 -42 -40 -94 -75 -103 -69 -5 3 -7 2 -4 -4 5 -9
-263 -233 -279 -233 -11 0 -34 -29 -34 -42 0 -8 19 -34 43 -59 23 -25 58 -63
77 -84 20 -22 77 -86 128 -142 51 -56 92 -104 92 -108 0 -3 14 -18 30 -32 17
-13 27 -30 23 -35 -3 -7 -1 -8 5 -4 13 8 35 -28 24 -39 -4 -5 -1 -4 7 0 11 6
13 4 8 -8 -5 -13 -3 -15 11 -7 43 24 129 57 145 54 9 -1 15 2 11 7 -5 8 10 13
19 7 2 -2 12 4 22 12 17 13 18 13 11 0 -5 -10 -3 -10 6 1 18 22 79 47 98 41 8
-3 12 -1 7 3 -9 11 122 67 140 60 8 -2 12 -1 9 4 -5 7 163 84 204 93 8 2 17 5
20 8 7 7 81 39 100 42 8 2 21 9 29 16 8 8 22 11 33 9 10 -3 16 -2 13 3 -6 10
75 41 89 33 6 -3 8 -2 3 2 -8 10 -22 4 843 370 715 304 810 344 795 345 -5 0
-574 -196 -1264 -435 -690 -239 -1256 -433 -1259 -431 -2 3 -59 80 -128 173
-95 129 -120 171 -111 179 7 7 361 321 787 699 426 378 777 692 778 696 2 5 0
9 -5 9 -4 0 -145 -111 -313 -246z"/>
<path d="M33969 18528 c-24 -39 -19 -81 13 -115 24 -26 106 -68 115 -59 9 9
-81 206 -95 206 -7 0 -21 -15 -33 -32z"/>
<path d="M16615 17824 c-341 -151 -623 -278 -626 -282 -7 -7 944 -927 958
-927 12 0 1152 699 1153 706 0 6 -740 672 -835 752 l-31 25 -619 -274z"/>
<path d="M14873 17052 c-403 -180 -733 -329 -733 -332 0 -13 1254 -1045 1269
-1044 16 0 1272 764 1297 788 9 8 -132 131 -526 461 -295 248 -546 451 -556
452 -10 1 -349 -146 -751 -325z"/>
<path d="M28549 14248 c-167 -123 -315 -231 -329 -240 -14 -9 -38 -29 -55 -43
-16 -15 -75 -59 -130 -98 -94 -67 -227 -165 -251 -185 -5 -5 -38 -28 -72 -52
-34 -23 -62 -43 -62 -45 0 -2 30 9 68 24 37 16 200 80 362 144 1089 428 1191
470 1173 482 -10 7 -94 56 -188 110 -93 54 -179 104 -191 112 -19 12 -43 -3
-325 -209z"/>
<path d="M34934 31227 c-23 -20 -28 -34 -32 -84 -4 -57 -3 -61 20 -66 21 -6
24 -12 24 -55 0 -63 39 -144 75 -156 96 -33 180 95 151 231 -20 98 -81 153
-166 153 -33 0 -52 -6 -72 -23z"/>
<path d="M20991 29706 c-105 -35 -139 -103 -154 -305 -12 -184 -5 -217 63
-283 107 -103 284 -100 364 5 46 60 59 112 60 237 2 239 -64 341 -230 355 -37
3 -75 0 -103 -9z"/>
<path d="M21907 28348 c-50 -14 -93 -55 -106 -104 -6 -21 -11 -83 -11 -136 0
-98 0 -98 -25 -98 -14 0 -25 -5 -25 -10 0 -20 28 -65 55 -90 23 -22 36 -25 93
-25 79 1 132 24 182 81 91 104 105 273 31 356 -26 29 -35 32 -92 34 -35 2 -81
-2 -102 -8z"/>
<path d="M10089 18241 c-20 -21 -29 -39 -29 -62 0 -27 62 -380 101 -577 6 -29
22 -66 36 -82 26 -31 384 -313 444 -349 62 -38 152 -21 203 39 26 32 116 371
116 441 0 78 -22 101 -282 284 -448 316 -478 335 -521 335 -29 0 -46 -7 -68
-29z"/>
<path d="M26790 12934 c-838 -46 -1527 -87 -1531 -92 -9 -10 -1002 -2753 -997
-2756 9 -7 5023 -360 5026 -354 2 3 -182 742 -407 1642 -226 899 -411 1637
-411 1640 0 11 -154 4 -1680 -80z"/>
<path d="M18925 11120 c-27 -27 -47 -52 -44 -54 3 -3 135 -66 295 -141 188
-89 296 -134 309 -130 11 3 42 25 69 48 l48 44 -303 137 c-167 76 -309 140
-314 142 -6 3 -33 -18 -60 -46z"/>
</g>
</svg>
